<svg xmlns="http://www.w3.org/2000/svg" viewBox="0 0 1600 1000" width="1600" height="1000" role="img" aria-label="项目详情占位图 3">
  <defs>
    <linearGradient id="dbg3" x1="0" y1="0" x2="0" y2="1">
      <stop offset="0%" stop-color="#101018"/>
      <stop offset="100%" stop-color="#0a0a10"/>
    </linearGradient>
  </defs>

  <rect width="1600" height="1000" fill="url(#dbg3)"/>

  <rect x="200" y="240" width="360" height="560" rx="28" fill="#13131b" stroke="#242430" stroke-width="1.5"/>
  <rect x="300" y="272" width="160" height="14" rx="7" fill="#2c2c3a"/>
  <rect x="240" y="330" width="280" height="120" rx="12" fill="#1c1c26"/>
  <rect x="240" y="472" width="200" height="12" rx="6" fill="#26262f"/>
  <rect x="240" y="496" width="150" height="12" rx="6" fill="#26262f"/>
  <rect x="240" y="548" width="280" height="80" rx="12" fill="#1c1c26"/>
  <rect x="240" y="656" width="280" height="80" rx="12" fill="#1c1c26"/>

  <rect x="620" y="240" width="360" height="560" rx="28" fill="#15151f" stroke="#7c5cff" stroke-opacity="0.45" stroke-width="1.5"/>
  <rect x="720" y="272" width="160" height="14" rx="7" fill="#3a3a4a"/>
  <rect x="660" y="330" width="280" height="180" rx="12" fill="#242430"/>
  <rect x="660" y="532" width="280" height="46" rx="10" fill="#7c5cff" opacity="0.85"/>
  <rect x="660" y="596" width="280" height="12" rx="6" fill="#26262f"/>
  <rect x="660" y="620" width="220" height="12" rx="6" fill="#26262f"/>
  <rect x="660" y="666" width="280" height="80" rx="12" fill="#1c1c26"/>

  <rect x="1040" y="240" width="360" height="560" rx="28" fill="#13131b" stroke="#242430" stroke-width="1.5"/>
  <circle cx="1120" cy="330" r="40" fill="#7c5cff"/>
  <circle cx="1220" cy="330" r="40" fill="#22d3ee"/>
  <circle cx="1320" cy="330" r="40" fill="#3a3a4a"/>
  <rect x="1080" y="412" width="200" height="10" rx="5" fill="#26262f"/>
  <rect x="1080" y="452" width="280" height="70" rx="10" fill="#1c1c26"/>
  <rect x="1080" y="546" width="280" height="70" rx="10" fill="#1c1c26"/>
  <rect x="1080" y="640" width="280" height="70" rx="10" fill="#1c1c26"/>

  <text x="800" y="900" text-anchor="middle" font-family="ui-monospace, SFMono-Regular, Menlo, monospace" font-size="25" fill="#43434f" letter-spacing="3">DETAIL · 1600 × 1000 · 替换这张图</text>
</svg>
