<svg xmlns="http://www.w3.org/2000/svg" viewBox="0 0 1600 1000" width="1600" height="1000" role="img" aria-label="项目封面占位图 2">
  <defs>
    <linearGradient id="bg2" x1="0" y1="0" x2="1" y2="1">
      <stop offset="0%" stop-color="#eeeef1"/>
      <stop offset="100%" stop-color="#d6d6da"/>
    </linearGradient>
    <pattern id="grid2" width="64" height="64" patternUnits="userSpaceOnUse">
      <path d="M64 0H0V64" fill="none" stroke="#ffffff" stroke-width="1" opacity="0.55"/>
    </pattern>
    <radialGradient id="glow2" cx="0.5" cy="0.42" r="0.55">
      <stop offset="0%" stop-color="#ffffff" stop-opacity="0.85"/>
      <stop offset="100%" stop-color="#ffffff" stop-opacity="0"/>
    </radialGradient>
  </defs>

  <rect width="1600" height="1000" fill="url(#bg2)"/>
  <rect width="1600" height="1000" fill="url(#grid2)"/>
  <rect width="1600" height="1000" fill="url(#glow2)"/>

  <rect x="536" y="286" width="528" height="330" rx="14" fill="#c3c4c9"/>
  <rect x="584" y="234" width="528" height="330" rx="14" fill="#d5d6da"/>
  <rect x="632" y="182" width="528" height="330" rx="14" fill="#e8e8eb" stroke="#c9cace" stroke-width="1.5"/>
  <rect x="676" y="228" width="150" height="14" rx="7" fill="#c2c3c7"/>
  <rect x="676" y="262" width="310" height="10" rx="5" fill="#d2d3d7"/>
  <rect x="676" y="284" width="250" height="10" rx="5" fill="#d2d3d7"/>
  <rect x="676" y="330" width="440" height="134" rx="8" fill="#dcdde0"/>

  <text x="800" y="452" text-anchor="middle" font-family="ui-monospace, SFMono-Regular, Menlo, monospace" font-size="76" font-weight="500" fill="#9a9ba1" letter-spacing="4">02</text>

  <text x="72" y="918" font-family="ui-monospace, SFMono-Regular, Menlo, monospace" font-size="25" fill="#8e8f95" letter-spacing="3">COVER · 1600 × 1000</text>
  <text x="1528" y="918" text-anchor="end" font-family="ui-monospace, SFMono-Regular, Menlo, monospace" font-size="25" fill="#a8a9ae" letter-spacing="3">替换这张图</text>
</svg>
